<?xml version="1.0" standalone="no"?>
<!DOCTYPE svg PUBLIC "-//W3C//DTD SVG 20010904//EN"
 "http://www.w3.org/TR/2001/REC-SVG-20010904/DTD/svg10.dtd">
<svg version="1.0" xmlns="http://www.w3.org/2000/svg"
 width="200.000000pt" height="194.000000pt" viewBox="0 0 200.000000 194.000000"
 preserveAspectRatio="xMidYMid meet">

<g transform="translate(0.000000,194.000000) scale(0.100000,-0.100000)"
fill="#000000" stroke="none">
<path d="M640 1674 c-190 -91 -350 -171 -356 -177 -6 -7 -50 -185 -98 -396
l-86 -384 32 -42 c18 -23 130 -164 248 -313 l215 -271 405 0 405 0 232 292
c128 161 240 302 248 314 14 20 9 51 -71 405 -48 211 -92 388 -98 395 -15 16
-700 343 -718 343 -7 -1 -168 -75 -358 -166z m694 -68 c175 -84 322 -160 326
-167 12 -22 162 -689 158 -703 -2 -7 -104 -139 -228 -294 l-225 -282 -366 0
-366 0 -226 285 c-125 157 -227 291 -227 298 0 18 149 669 158 690 8 19 632
327 662 327 8 0 159 -69 334 -154z"/>
<path d="M700 935 c0 -158 2 -185 15 -185 12 0 15 14 15 65 l0 65 58 0 58 0
42 -65 c23 -36 48 -65 57 -65 21 0 20 4 -18 63 -18 29 -36 57 -40 64 -5 7 4
19 22 29 71 42 68 146 -5 195 -23 15 -47 19 -116 19 l-88 0 0 -185z m202 125
c26 -27 30 -36 25 -67 -10 -60 -36 -77 -122 -81 l-75 -4 0 91 0 91 71 0 c65 0
73 -2 101 -30z"/>
<path d="M1040 936 l0 -186 110 0 c104 0 112 2 135 24 13 13 27 36 31 51 9 34
-17 91 -46 100 -20 6 -20 7 5 37 33 39 33 87 1 125 -23 27 -28 28 -130 31
l-106 4 0 -186z m208 134 c13 -12 22 -33 22 -50 0 -51 -32 -70 -117 -70 l-73
0 0 70 0 70 73 0 c60 0 77 -4 95 -20z m9 -165 c29 -20 34 -59 12 -95 -18 -30
-20 -30 -104 -30 l-85 0 0 70 0 70 78 0 c52 0 84 -5 99 -15z"/>
</g>
</svg>
